<mxfile host="app.diagrams.net" modified="2024-04-23T09:56:58.272Z" agent="Mozilla/5.0 (Macintosh; Intel Mac OS X 10_15_7) AppleWebKit/537.36 (KHTML, like Gecko) Chrome/123.0.0.0 Safari/537.36" etag="AslGOiAvfvPRykj0KLs3" version="24.2.5" type="github">
  <diagram name="第 1 页" id="au2QBy3FSzcQ9kTv4xww">
    <mxGraphModel dx="1035" dy="702" grid="1" gridSize="10" guides="1" tooltips="1" connect="1" arrows="1" fold="1" page="1" pageScale="1" pageWidth="827" pageHeight="1169" math="0" shadow="0">
      <root>
        <mxCell id="0" />
        <mxCell id="1" parent="0" />
        <mxCell id="5L7Eph0Q-Wm5cCdcGl41-1" value="任务名称：exe_app_cust_boai_cdp_sum_d&lt;div&gt;任务描述：存客CDP用户属性一期数据加工&lt;/div&gt;" style="rounded=0;whiteSpace=wrap;html=1;" vertex="1" parent="1">
          <mxGeometry x="170" y="130" width="310" height="120" as="geometry" />
        </mxCell>
      </root>
    </mxGraphModel>
  </diagram>
</mxfile>
